<svg xmlns="http://www.w3.org/2000/svg" viewBox="0 0 1920 1080" fill="none" preserveAspectRatio="none">
  <defs>
    <filter id="motionGlow" x="-20%" y="-20%" width="140%" height="140%">
      <feGaussianBlur stdDeviation="1.5" result="blur" />
      <feMerge>
        <feMergeNode in="blur" />
        <feMergeNode in="SourceGraphic" />
      </feMerge>
    </filter>
  </defs>

  <g filter="url(#motionGlow)" stroke="#62f6ff" stroke-width="1.88" stroke-linecap="round" stroke-linejoin="round">
    <path d="M392 0V132L428 168V286" />
    <path d="M706 0V118L742 154V402" />
    <path d="M1004 0V96L1040 132V618" />
    <path d="M1468 0V110L1504 146V324" />
    <path d="M1760 0V126L1794 160V702" />
  </g>

  <g fill="#72faff" filter="url(#motionGlow)">
    <circle cx="428" cy="168" r="3" />
    <circle cx="428" cy="286" r="4.8" />
    <circle cx="742" cy="154" r="3" />
    <circle cx="742" cy="402" r="5" />
    <circle cx="1040" cy="132" r="3" />
    <circle cx="1040" cy="618" r="5.3" />
    <circle cx="1504" cy="146" r="3" />
    <circle cx="1504" cy="324" r="4.9" />
    <circle cx="1794" cy="160" r="3" />
    <circle cx="1794" cy="702" r="5.4" />
  </g>
</svg>
